<svg width="120" height="120" viewBox="0 0 120 120" fill="none" xmlns="http://www.w3.org/2000/svg">
  <rect width="120" height="120" rx="24" fill="#FFF6EA"/>
  <path d="M30 68C30 53.536 41.536 42 56 42H64C78.464 42 90 53.536 90 68V76C90 82.6274 84.6274 88 78 88H58C45.8497 88 36 78.1503 36 66V68H30Z" fill="#FFB84A"/>
  <path d="M40 68C40 60.268 45.268 54 53 54H67C74.732 54 80 60.268 80 68V72H40V68Z" fill="#FFC77D"/>
  <path d="M54 34C60.6274 34 66 39.3726 66 46V52H54V46C54 39.3726 58.3726 34 54 34Z" fill="#FFEBB5"/>
  <path d="M46 40H74C76.2091 40 78 41.7909 78 44V46H42V44C42 41.7909 43.7909 40 46 40Z" fill="#FFDA82"/>
</svg>
